<?xml version="1.0" encoding="utf-8"?>
<!-- Generator: Adobe Illustrator 19.1.0, SVG Export Plug-In . SVG Version: 6.00 Build 0)  -->
<svg version="1.1" id="Layer_1" xmlns:ev="http://www.w3.org/2001/xml-events"
	 xmlns="http://www.w3.org/2000/svg" xmlns:xlink="http://www.w3.org/1999/xlink" x="0px" y="0px" viewBox="-89 94 20 14"
	 style="enable-background:new -89 94 20 14;" xml:space="preserve">
<path d="M-81.5,107.4l-0.3-0.3c-0.1-0.2-3.6-3.6-4.8-4.9c-1.2-1.3-1.9-2.2-1.9-3.8c0-1.5,0.9-3.8,3.4-3.8c1.7,0,3,1.1,3.6,1.8
	c0.6-0.7,1.8-1.8,3.5-1.8c2.5,0,3.4,2.3,3.4,3.8c0,1.6-0.7,2.5-1.9,3.8c-1.2,1.3-4.6,4.8-4.7,4.9L-81.5,107.4z M-85.1,95.6
	c-2,0-2.5,1.9-2.5,2.8c0,1.2,0.5,1.9,1.6,3.2c0.9,1.1,3.5,3.6,4.4,4.5c0.9-0.9,3.4-3.5,4.3-4.6c1.2-1.3,1.6-2,1.6-3.2
	c0-1-0.5-2.8-2.5-2.8c-1.9,0-3.1,1.9-3.1,1.9l-0.4,0.6l-0.4-0.6C-81.9,97.4-83.2,95.6-85.1,95.6z"/>
</svg>
