<svg width="95" height="95" viewBox="0 0 95 95" fill="none" xmlns="http://www.w3.org/2000/svg">
<mask id="path-1-inside-1_22_29" fill="white">
<path d="M56 46.8461L43 55.9999V38.9999L56 46.8461Z"/>
<path d="M95 47.5C95 73.7335 73.7335 95 47.5 95C21.2665 95 0 73.7335 0 47.5C0 21.2665 21.2665 0 47.5 0C73.7335 0 95 21.2665 95 47.5Z"/>
<path d="M49 46.8846L47 48.5V45.5L49 46.8846Z"/>
</mask>
<path d="M56 46.8461L58.3029 50.1166L63.3138 46.5883L58.0669 43.4215L56 46.8461ZM43 55.9999H39V63.7086L45.3029 59.2705L43 55.9999ZM43 38.9999L45.0669 35.5753L39 31.9136V38.9999H43ZM49 46.8846L51.5133 49.9964L55.6712 46.6381L51.2768 43.5958L49 46.8846ZM47 48.5H43V56.8725L49.5133 51.6118L47 48.5ZM47 45.5L49.2768 42.2112L43 37.8657V45.5H47ZM53.6971 43.5755L40.6971 52.7294L45.3029 59.2705L58.3029 50.1166L53.6971 43.5755ZM47 55.9999V38.9999H39V55.9999H47ZM40.9331 42.4245L53.9331 50.2707L58.0669 43.4215L45.0669 35.5753L40.9331 42.4245ZM91 47.5C91 71.5244 71.5244 91 47.5 91V99C75.9427 99 99 75.9427 99 47.5H91ZM47.5 91C23.4756 91 4 71.5244 4 47.5H-4C-4 75.9427 19.0573 99 47.5 99V91ZM4 47.5C4 23.4756 23.4756 4 47.5 4V-4C19.0573 -4 -4 19.0573 -4 47.5H4ZM47.5 4C71.5244 4 91 23.4756 91 47.5H99C99 19.0573 75.9427 -4 47.5 -4V4ZM46.4867 43.7729L44.4867 45.3882L49.5133 51.6118L51.5133 49.9964L46.4867 43.7729ZM51 48.5V45.5H43V48.5H51ZM44.7232 48.7888L46.7232 50.1734L51.2768 43.5958L49.2768 42.2112L44.7232 48.7888Z" fill="white" mask="url(#path-1-inside-1_22_29)"/>
</svg>
